


***************************** TPB IS BENEDICTION TO ME ****************************
*						            	                  *
*                 *                     *                     *                   *
*	         ***                   ***                   ***		  *
*               *****                 *****                 *****		  *
*              *******		     *******               *******                *
*             *********	            *********             ********* 		  *
*            ***********           ***********           ***********              *
*           *************         *************         *************	          *
*          ***************       ***************       ***************            *
*         *****************     *****************     *****************           *
*        *** TPB My Love ***   *** TPB My Love ***   *** TPB My Love *** 	  *
*         *****************     *****************     *****************	          *
*          ***************       ***************       ***************            *
*           *************         *************         *************             *
*            ***********           ***********           ***********	 	  *
*             *********             *********             *********               *
*              *******               *******               *******                *
*               *****                 *****                 *****                 *
*                ***                   ***		     ***                  *
*	          *                     *                     *                   *
*	                                                                          *
**************************** TPB IS BENEDICTION TO ME *****************************



Screen Link :---

 
http://www.shotpix.com/images/45383132234518911966.png
 
http://www.shotpix.com/images/37649497439949622619.png
 
http://www.shotpix.com/images/46025730232162661924.png
 
http://www.shotpix.com/images/83258675960968411499.jpg



Torrent Status :---


                           
http://torrent-stats.info/ca70/136838340.png



General Info :---


Format                           : MPEG-4
Format profile                   : Base Media / Version 2
Codec ID                         : mp42
File size                        : 2.34 GiB
Duration                         : 2h 38mn
Overall bit rate                 : 2 121 Kbps

Video
ID                               : 2
Format                           : AVC
Format/Info                      : Advanced Video Codec
Format profile                   : Baseline@L3.1
Format settings, CABAC           : No
Format settings, ReFrames        : 1 frame
Codec ID                         : avc1
Codec ID/Info                    : Advanced Video Coding
Duration                         : 2h 38mn
Bit rate mode                    : Variable
Bit rate                         : 1 993 Kbps
Width                            : 640 pixels
Height                           : 480 pixels
Display aspect ratio             : 4:3
Frame rate mode                  : Constant
Frame rate                       : 30.000 fps
Standard                         : NTSC
Color space                      : YUV
Chroma subsampling               : 4:2:0
Bit depth                        : 8 bits
Scan type                        : Progressive
Bits/(Pixel*Frame)               : 0.216
Stream size                      : 2.20 GiB (94%)
Language                         : English
Encoded date                     : UTC 2011-09-13 20:38:38
Tagged date                      : UTC 2011-09-13 20:38:38

Audio
ID                               : 1
Format                           : AAC
Format/Info                      : Advanced Audio Codec
Format profile                   : LC
Codec ID                         : 40
Duration                         : 2h 38mn
Bit rate mode                    : Variable
Bit rate                         : 125 Kbps
Maximum bit rate                 : 320 Kbps
Channel(s)                       : 2 channels
Channel positions                : Front: L R
Sampling rate                    : 48.0 KHz
Compression mode                 : Lossy
Stream size                      : 142 MiB (6%)



***************************** TPB IS BENEDICTION TO ME ****************************
*						            	                  *
*                 *                     *                     *                   *
*	         ***                   ***                   ***		  *
*               *****                 *****                 *****		  *
*              *******		     *******               *******                *
*             *********	            *********             ********* 		  *
*            ***********           ***********           ***********              *
*           *************         *************         *************	          *
*          ***************       ***************       ***************            *
*         *****************     *****************     *****************           *
*        *** TPB My Love ***   *** TPB My Love ***   *** TPB My Love *** 	  *
*         *****************     *****************     *****************	          *
*          ***************       ***************       ***************            *
*           *************         *************         *************             *
*            ***********           ***********           ***********	 	  *
*             *********             *********             *********               *
*              *******               *******               *******                *
*               *****                 *****                 *****                 *
*                ***                   ***		     ***                  *
*	          *                     *                     *                   *
*	                                                                          *
**************************** TPB IS BENEDICTION TO ME *****************************

